{"accessors":[{"bufferView":0,"componentType":5121,"count":180,"max":[51],"min":[0],"type":"SCALAR"},{"bufferView":1,"componentType":5126,"count":52,"max":[0.0026977304369211197,0.00176582345739007,0.0052771796472370625],"min":[-0.0026977304369211197,-0.00176582345739007,-0.0052771796472370625],"type":"VEC3"},{"bufferView":2,"componentType":5126,"count":52,"max":[0.9082921147346497,0.9178741574287415,0.8764075040817261],"min":[-0.9082920551300049,-0.9178743362426758,-0.8764075040817261],"type":"VEC3"},{"bufferView":3,"componentType":5126,"count":52,"max":[1.0000001192092896,0.989999994635582],"min":[0.0,0.0],"type":"VEC2"},{"bufferView":4,"componentType":5121,"count":180,"max":[51],"min":[0],"type":"SCALAR"},{"bufferView":5,"componentType":5126,"count":52,"max":[0.0020167946349829435,0.001733936369419098,0.0031785047613084316],"min":[-0.0021590592805296183,-0.001813818234950304,-0.0032877479679882526],"type":"VEC3"},{"bufferView":6,"componentType":5126,"count":52,"max":[0.9032333493232727,0.9054780602455139,0.8682266473770142],"min":[-0.9082785844802856,-0.9068344831466675,-0.8772416710853577],"type":"VEC3"},{"bufferView":7,"componentType":5126,"count":52,"max":[1.0000001192092896,0.989999994635582],"min":[0.0,0.0],"type":"VEC2"},{"bufferView":8,"componentType":5121,"count":276,"max":[69],"min":[0],"type":"SCALAR"},{"bufferView":9,"componentType":5126,"count":70,"max":[0.0012818402610719204,0.001381194917485118,0.0032913926988840103],"min":[-0.002715605776757002,-0.0027837068773806095,-0.003203913103789091],"type":"VEC3"},{"bufferView":10,"componentType":5126,"count":70,"max":[0.9391160011291504,0.9383335709571838,0.8473132848739624],"min":[-0.9423322081565857,-0.942025363445282,-0.9201640486717224],"type":"VEC3"},{"bufferView":11,"componentType":5126,"count":70,"max":[1.0000001192092896,0.989999994635582],"min":[0.0,0.0],"type":"VEC2"},{"bufferView":12,"componentType":5121,"count":324,"max":[78],"min":[0],"type":"SCALAR"},{"bufferView":13,"componentType":5126,"count":79,"max":[0.0026768334209918976,0.002600140403956175,0.005445805378258228],"min":[-0.002607777016237378,-0.0017285887151956558,-0.0054082986898720264],"type":"VEC3"},{"bufferView":14,"componentType":5126,"count":79,"max":[0.9599660038948059,0.9384956359863281,0.9718733429908752],"min":[-0.9635458588600159,-0.9700591564178467,-0.950803279876709],"type":"VEC3"},{"bufferView":15,"componentType":5126,"count":79,"max":[1.0000004768371582,0.989999994635582],"min":[-8.692872199844714e-08,0.0],"type":"VEC2"},{"bufferView":16,"componentType":5123,"count":2880,"max":[558],"min":[0],"type":"SCALAR"},{"bufferView":17,"componentType":5126,"count":559,"max":[0.003311693202704191,0.003311694134026766,0.0033116922713816166],"min":[-0.0033116908743977547,-0.003311694134026766,-0.00331168994307518],"type":"VEC3"},{"bufferView":18,"componentType":5126,"count":559,"max":[1.0,0.9999999403953552,1.0],"min":[-1.0,-1.0,-1.0],"type":"VEC3"},{"bufferView":19,"componentType":5126,"count":559,"max":[1.0000001192092896,1.0],"min":[0.0,0.0],"type":"VEC2"},{"bufferView":20,"componentType":5123,"count":2880,"max":[558],"min":[0],"type":"SCALAR"},{"bufferView":21,"componentType":5126,"count":559,"max":[0.003311693202704191,0.003311694134026766,0.0033116922713816166],"min":[-0.0033116908743977547,-0.003311694134026766,-0.00331168994307518],"type":"VEC3"},{"bufferView":22,"componentType":5126,"count":559,"max":[1.0,0.9999999403953552,1.0],"min":[-1.0,-1.0,-1.0],"type":"VEC3"},{"bufferView":23,"componentType":5126,"count":559,"max":[1.0000001192092896,1.0],"min":[0.0,0.0],"type":"VEC2"},{"bufferView":24,"componentType":5123,"count":2880,"max":[558],"min":[0],"type":"SCALAR"},{"bufferView":25,"componentType":5126,"count":559,"max":[0.003311693202704191,0.003311694134026766,0.0033116922713816166],"min":[-0.0033116908743977547,-0.003311694134026766,-0.00331168994307518],"type":"VEC3"},{"bufferView":26,"componentType":5126,"count":559,"max":[1.0,0.9999999403953552,1.0],"min":[-1.0,-1.0,-1.0],"type":"VEC3"},{"bufferView":27,"componentType":5126,"count":559,"max":[1.0000001192092896,1.0],"min":[0.0,0.0],"type":"VEC2"},{"bufferView":28,"componentType":5123,"count":2880,"max":[558],"min":[0],"type":"SCALAR"},{"bufferView":29,"componentType":5126,"count":559,"max":[0.003311693202704191,0.003311694134026766,0.0033116922713816166],"min":[-0.0033116908743977547,-0.003311694134026766,-0.00331168994307518],"type":"VEC3"},{"bufferView":30,"componentType":5126,"count":559,"max":[1.0,0.9999999403953552,1.0],"min":[-1.0,-1.0,-1.0],"type":"VEC3"},{"bufferView":31,"componentType":5126,"count":559,"max":[1.0000001192092896,1.0],"min":[0.0,0.0],"type":"VEC2"},{"bufferView":32,"componentType":5123,"count":61440,"max":[10813],"min":[0],"type":"SCALAR"},{"bufferView":33,"componentType":5126,"count":10814,"max":[0.049437880516052246,0.023521995171904564,0.051409147679805756],"min":[-0.05508982390165329,-0.019343672320246696,-0.05047501623630524],"type":"VEC3"},{"bufferView":34,"componentType":5126,"count":10814,"max":[0.9999066591262817,0.9996976256370544,0.9994722008705139],"min":[-0.99964839220047,-0.9999998807907104,-0.9998061656951904],"type":"VEC3"},{"bufferView":35,"componentType":5126,"count":10814,"max":[1.0000001192092896,1.0],"min":[4.440892098500626e-16,-1.1920928955078125e-07],"type":"VEC2"},{"bufferView":36,"componentType":5126,"count":10814,"max":[1.0,1.0,1.0,1.0],"min":[1.0,1.0,1.0,1.0],"type":"VEC4"},{"bufferView":37,"componentType":5123,"count":66144,"max":[11772],"min":[0],"type":"SCALAR"},{"bufferView":38,"componentType":5126,"count":11773,"max":[0.05115403234958649,0.02575659565627575,0.05360586568713188],"min":[-0.05668229982256889,-0.011225704103708267,-0.05306830257177353],"type":"VEC3"},{"bufferView":39,"componentType":5126,"count":11773,"max":[0.9999596476554871,0.9999756813049316,0.9993181824684143],"min":[-0.9996500611305237,-0.9999626874923706,-0.9980908632278442],"type":"VEC3"},{"bufferView":40,"componentType":5126,"count":11773,"max":[1.000000238418579,0.5],"min":[4.440892098500626e-16,-2.384185791015625e-07],"type":"VEC2"},{"bufferView":41,"componentType":5126,"count":301,"max":[10.0],"min":[0.0],"type":"SCALAR"},{"bufferView":42,"componentType":5126,"count":301,"max":[0.0,0.9996679425239563,-0.0,0.9999999403953552],"min":[0.0,-0.9999067783355713,-0.0,-0.9978424906730652],"type":"VEC4"}],"animations":[{"channels":[{"sampler":0,"target":{"node":6,"path":"rotation"}}],"extensions":{"S8S_v3d_animation_data":{"auto":true,"loop":"REPEAT","offset":0.0,"repeatCount":1.0,"repeatInfinite":true}},"name":"Donut","samplers":[{"input":41,"interpolation":"LINEAR","output":42}]}],"asset":{"generator":"Soft8Soft Verge3D for Blender add-on","version":"2.0"},"bufferViews":[{"buffer":0,"byteLength":180,"byteOffset":0,"target":34963},{"buffer":0,"byteLength":624,"byteOffset":180,"target":34962},{"buffer":0,"byteLength":624,"byteOffset":804,"target":34962},{"buffer":0,"byteLength":416,"byteOffset":1428,"target":34962},{"buffer":0,"byteLength":180,"byteOffset":1844,"target":34963},{"buffer":0,"byteLength":624,"byteOffset":2024,"target":34962},{"buffer":0,"byteLength":624,"byteOffset":2648,"target":34962},{"buffer":0,"byteLength":416,"byteOffset":3272,"target":34962},{"buffer":0,"byteLength":276,"byteOffset":3688,"target":34963},{"buffer":0,"byteLength":840,"byteOffset":3964,"target":34962},{"buffer":0,"byteLength":840,"byteOffset":4804,"target":34962},{"buffer":0,"byteLength":560,"byteOffset":5644,"target":34962},{"buffer":0,"byteLength":324,"byteOffset":6204,"target":34963},{"buffer":0,"byteLength":948,"byteOffset":6528,"target":34962},{"buffer":0,"byteLength":948,"byteOffset":7476,"target":34962},{"buffer":0,"byteLength":632,"byteOffset":8424,"target":34962},{"buffer":0,"byteLength":5760,"byteOffset":9056,"target":34963},{"buffer":0,"byteLength":6708,"byteOffset":14816,"target":34962},{"buffer":0,"byteLength":6708,"byteOffset":21524,"target":34962},{"buffer":0,"byteLength":4472,"byteOffset":28232,"target":34962},{"buffer":0,"byteLength":5760,"byteOffset":32704,"target":34963},{"buffer":0,"byteLength":6708,"byteOffset":38464,"target":34962},{"buffer":0,"byteLength":6708,"byteOffset":45172,"target":34962},{"buffer":0,"byteLength":4472,"byteOffset":51880,"target":34962},{"buffer":0,"byteLength":5760,"byteOffset":56352,"target":34963},{"buffer":0,"byteLength":6708,"byteOffset":62112,"target":34962},{"buffer":0,"byteLength":6708,"byteOffset":68820,"target":34962},{"buffer":0,"byteLength":4472,"byteOffset":75528,"target":34962},{"buffer":0,"byteLength":5760,"byteOffset":80000,"target":34963},{"buffer":0,"byteLength":6708,"byteOffset":85760,"target":34962},{"buffer":0,"byteLength":6708,"byteOffset":92468,"target":34962},{"buffer":0,"byteLength":4472,"byteOffset":99176,"target":34962},{"buffer":0,"byteLength":122880,"byteOffset":103648,"target":34963},{"buffer":0,"byteLength":129768,"byteOffset":226528,"target":34962},{"buffer":0,"byteLength":129768,"byteOffset":356296,"target":34962},{"buffer":0,"byteLength":86512,"byteOffset":486064,"target":34962},{"buffer":0,"byteLength":173024,"byteOffset":572576,"target":34962},{"buffer":0,"byteLength":132288,"byteOffset":745600,"target":34963},{"buffer":0,"byteLength":141276,"byteOffset":877888,"target":34962},{"buffer":0,"byteLength":141276,"byteOffset":1019164,"target":34962},{"buffer":0,"byteLength":94184,"byteOffset":1160440,"target":34962},{"buffer":0,"byteLength":1204,"byteOffset":1254624},{"buffer":0,"byteLength":4816,"byteOffset":1255828}],"buffers":[{"byteLength":1260644,"uri":"Index.bin"}],"cameras":[{"extensions":{"S8S_v3d_camera_data":{"controls":"ORBIT","enablePan":true,"moveSpeed":1.0,"orbitMaxDistance":100.0,"orbitMaxPolarAngle":3.1415927410125732,"orbitMaxZoom":100.0,"orbitMinDistance":0.0,"orbitMinPolarAngle":0.0,"orbitMinZoom":0.009999999776482582,"orbitTarget":[0.0,0.0,-0.0],"rotateSpeed":1.0,"viewportFitInitialAspect":0.75,"viewportFitType":"AUTO"}},"name":"Camera","perspective":{"aspectRatio":0.75,"yfov":0.8457078337669373,"zfar":100.0,"znear":0.10000000149011612},"type":"perspective"}],"extensions":{"S8S_v3d_data":{"lights":[{"color":[1.0,1.0,1.0],"decay":2,"distance":4.472136004979594,"intensity":20.0,"name":"Light","profile":"blender","shadow":{"bias":-1.8000000854954123e-06,"cameraFar":4.472136004979594,"cameraFov":0,"cameraNear":0.05000000074505806,"enabled":true,"expBias":2.5,"mapSize":4096,"radius":1.0,"slopeScaledBias":2.5},"type":"point"}]}},"extensionsUsed":["S8S_v3d_texture_data","S8S_v3d_material_data","S8S_v3d_camera_data","S8S_v3d_data","S8S_v3d_mesh_data","S8S_v3d_node_data","S8S_v3d_animation_data","S8S_v3d_scene_data"],"images":[{"uri":"Donut Base.png"}],"materials":[{"extensions":{"S8S_v3d_material_data":{"gtaoVisible":true,"materialIndex":0,"nodeGraph":{"edges":[{"fromNode":0,"fromOutput":0,"toInput":0,"toNode":1}],"nodes":[{"inputs":[[0.08306459337472916,0.024954574182629585,0.016455234959721565,1.0],0.10000000149011612,[0.019999999552965164,0.20000000298023224,0.019999999552965164],[0.08306459337472916,0.024954574182629585,0.016455234959721565,1.0],1.399999976158142,0.0,0.0,0.5,0.0,0.19999998807907104,0.0,0.0,0.0,0.5,0.0,0.029999999329447746,1.4500000476837158,0.0,0.0,[0.0,0.0,0.0,1.0],1.0,1.0,[0.0,0.0,0.0],[0.0,0.0,0.0],[0.0,0.0,0.0]],"is_active_output":false,"name":"Principled BSDF","outputs":[[0,0,0,0]],"type":"BSDF_PRINCIPLED_BL"},{"inputs":[[0,0,0,0],[0,0,0,0],[0.0,0.0,0.0]],"is_active_output":true,"name":"Material Output","outputs":[],"type":"OUTPUT_MATERIAL_BL"}]},"useCastShadows":true}},"name":"Material.002"},{"extensions":{"S8S_v3d_material_data":{"gtaoVisible":true,"materialIndex":0,"nodeGraph":{"edges":[{"fromNode":4,"fromOutput":0,"toInput":0,"toNode":2},{"fromNode":5,"fromOutput":0,"toInput":0,"toNode":0},{"fromNode":1,"fromOutput":3,"toInput":0,"toNode":4},{"fromNode":7,"fromOutput":0,"toInput":0,"toNode":5},{"fromNode":4,"fromOutput":0,"toInput":2,"toNode":6},{"fromNode":4,"fromOutput":0,"toInput":2,"toNode":7},{"fromNode":6,"fromOutput":0,"toInput":22,"toNode":5},{"fromNode":3,"fromOutput":0,"toInput":1,"toNode":7}],"nodes":[{"inputs":[[0,0,0,0],[0,0,0,0],[0.0,0.0,0.0]],"is_active_output":true,"name":"Material Output","outputs":[],"type":"OUTPUT_MATERIAL_BL"},{"inputs":[],"is_active_output":false,"name":"Texture Coordinate","object":-1,"outputs":[[0.0,0.0,0.0],[0.0,0.0,0.0],[0.0,0.0,0.0],[0.0,0.0,0.0],[0.0,0.0,0.0],[0.0,0.0,0.0],[0.0,0.0,0.0]],"type":"TEX_COORD_BL"},{"curve":{"input":[0.2909091114997864,0.7454550266265869],"interpolation":"LINEAR","output":[0.5680795311927795,0.22020505368709564,0.025603508576750755,1.0,1.0,0.40906569361686707,0.06018944829702377,1.0]},"inputs":[0.5],"is_active_output":false,"name":"ColorRamp","outputs":[[0.0,0.0,0.0,0.0],0.0],"type":"VALTORGB_BL"},{"inputs":[[0.0,0.0,0.0]],"is_active_output":false,"name":"Image Texture","outputs":[[0.0,0.0,0.0,0.0],0.0],"projection":"FLAT","projectionBlend":0.0,"texture":0,"type":"TEX_IMAGE_BL"},{"dispersionFactor":1.0,"falloffFactor":0.0,"inputs":[[0.0,0.0,0.0],0.0,39.29999923706055,3.0,0.5,0.0],"is_active_output":false,"name":"Noise Texture","outputs":[0.0,[0.0,0.0,0.0,0.0]],"type":"TEX_NOISE_BL"},{"inputs":[[0.8000000715255737,0.5867957472801208,0.32349592447280884,1.0],0.0,[1.0,0.20000000298023224,0.10000000149011612],[0.800000011920929,0.800000011920929,0.800000011920929,1.0],1.399999976158142,0.0,0.0,0.5,0.0,0.5,0.0,0.0,0.0,0.5,0.0,0.029999999329447746,1.4500000476837158,0.0,0.0,[0.0,0.0,0.0,1.0],1.0,1.0,[0.0,0.0,0.0],[0.0,0.0,0.0],[0.0,0.0,0.0]],"is_active_output":false,"name":"Principled BSDF","outputs":[[0,0,0,0]],"type":"BSDF_PRINCIPLED_BL"},{"inputs":[1.0,0.0020000000949949026,1.0,1.0,1.0,[0.0,0.0,0.0]],"invert":false,"is_active_output":false,"name":"Bump","outputs":[[0.0,0.0,0.0]],"type":"BUMP_BL"},{"blendType":"OVERLAY","inputs":[0.6833333373069763,[0.5,0.5,0.5,1.0],[0.5,0.5,0.5,1.0]],"is_active_output":false,"name":"Mix","outputs":[[0.0,0.0,0.0,0.0]],"type":"MIX_RGB_BL","useClamp":false}]},"useCastShadows":true}},"name":"Material.003"},{"extensions":{"S8S_v3d_material_data":{"gtaoVisible":true,"materialIndex":0,"nodeGraph":{"edges":[{"fromNode":0,"fromOutput":0,"toInput":0,"toNode":1}],"nodes":[{"inputs":[[0.18471583724021912,0.41405820846557617,0.8000000715255737,1.0],0.0,[1.0,0.20000000298023224,0.10000000149011612],[0.800000011920929,0.800000011920929,0.800000011920929,1.0],1.399999976158142,0.0,0.0,0.5,0.0,0.9415584206581116,0.0,0.0,0.0,0.5,0.0,0.029999999329447746,1.4500000476837158,0.0,0.0,[0.0,0.0,0.0,1.0],1.0,1.0,[0.0,0.0,0.0],[0.0,0.0,0.0],[0.0,0.0,0.0]],"is_active_output":false,"name":"Principled BSDF","outputs":[[0,0,0,0]],"type":"BSDF_PRINCIPLED_BL"},{"inputs":[[0,0,0,0],[0,0,0,0],[0.0,0.0,0.0]],"is_active_output":true,"name":"Material Output","outputs":[],"type":"OUTPUT_MATERIAL_BL"}]},"useCastShadows":true}},"name":"Material.004"},{"extensions":{"S8S_v3d_material_data":{"gtaoVisible":true,"materialIndex":0,"nodeGraph":{"edges":[{"fromNode":0,"fromOutput":0,"toInput":0,"toNode":1},{"fromNode":3,"fromOutput":0,"toInput":0,"toNode":0},{"fromNode":2,"fromOutput":4,"toInput":0,"toNode":3}],"nodes":[{"inputs":[[0.8000000715255737,0.7666721343994141,0.013855124823749065,1.0],0.0,[1.0,0.20000000298023224,0.10000000149011612],[0.800000011920929,0.800000011920929,0.800000011920929,1.0],1.399999976158142,0.0,0.0,0.5,0.0,0.5,0.0,0.0,0.0,0.5,0.0,0.029999999329447746,1.4500000476837158,0.0,0.0,[0.0,0.0,0.0,1.0],1.0,1.0,[0.0,0.0,0.0],[0.0,0.0,0.0],[0.0,0.0,0.0]],"is_active_output":false,"name":"Principled BSDF","outputs":[[0,0,0,0]],"type":"BSDF_PRINCIPLED_BL"},{"inputs":[[0,0,0,0],[0,0,0,0],[0.0,0.0,0.0]],"is_active_output":true,"name":"Material Output","outputs":[],"type":"OUTPUT_MATERIAL_BL"},{"inputs":[],"is_active_output":false,"name":"Object Info","outputs":[[0.0,0.0,0.0],[0.0,0.0,0.0,0.0],0.0,0.0,0.0],"type":"OBJECT_INFO_BL"},{"curve":{"input":[0.0,0.24999995529651642,0.49999991059303284,0.6250000596046448,0.7500000596046448,1.0],"interpolation":"STEP","output":[1.0,0.2579972743988037,0.879681408405304,1.0,1.0,0.7016234993934631,0.018791034817695618,1.0,0.0258722435683012,0.014353103935718536,1.0,1.0,1.0,0.11593233793973923,0.09881187230348587,1.0,0.7394715547561646,0.8401705622673035,1.0,1.0,1.0,0.03389011695981026,0.1757878214120865,1.0]},"inputs":[0.5],"is_active_output":false,"name":"ColorRamp","outputs":[[0.0,0.0,0.0,0.0],0.0],"type":"VALTORGB_BL"}]},"useCastShadows":true}},"name":"Sprinkles"},{"extensions":{"S8S_v3d_material_data":{"gtaoVisible":true,"materialIndex":0,"nodeGraph":{"edges":[{"fromNode":1,"fromOutput":0,"toInput":0,"toNode":0}],"nodes":[{"inputs":[[0,0,0,0],[0,0,0,0]],"is_active_output":true,"name":"World Output","outputs":[],"type":"OUTPUT_WORLD_BL"},{"inputs":[[0.05087608844041824,0.05087608844041824,0.05087608844041824,1.0],1.0],"is_active_output":false,"name":"Background","outputs":[[0,0,0,0]],"type":"BACKGROUND_BL"}]},"useCastShadows":true}},"name":"Verge3D_Environment_World"}],"meshes":[{"extensions":{"S8S_v3d_mesh_data":{"colorLayers":{},"uvLayers":{"UVMap":"TEXCOORD_0"}}},"name":"Cylinder.001","primitives":[{"attributes":{"NORMAL":2,"POSITION":1,"TEXCOORD_0":3},"indices":0,"material":3,"mode":4}]},{"extensions":{"S8S_v3d_mesh_data":{"colorLayers":{},"uvLayers":{"UVMap":"TEXCOORD_0"}}},"name":"Cylinder.004","primitives":[{"attributes":{"NORMAL":6,"POSITION":5,"TEXCOORD_0":7},"indices":4,"material":3,"mode":4}]},{"extensions":{"S8S_v3d_mesh_data":{"colorLayers":{},"uvLayers":{"UVMap":"TEXCOORD_0"}}},"name":"Cylinder.005","primitives":[{"attributes":{"NORMAL":10,"POSITION":9,"TEXCOORD_0":11},"indices":8,"material":3,"mode":4}]},{"extensions":{"S8S_v3d_mesh_data":{"colorLayers":{},"uvLayers":{"UVMap":"TEXCOORD_0"}}},"name":"Cylinder.006","primitives":[{"attributes":{"NORMAL":14,"POSITION":13,"TEXCOORD_0":15},"indices":12,"material":3,"mode":4}]},{"extensions":{"S8S_v3d_mesh_data":{"colorLayers":{},"uvLayers":{"UVMap":"TEXCOORD_0"}}},"name":"Sphere","primitives":[{"attributes":{"NORMAL":18,"POSITION":17,"TEXCOORD_0":19},"indices":16,"material":2,"mode":4}]},{"extensions":{"S8S_v3d_mesh_data":{"colorLayers":{},"uvLayers":{"UVMap":"TEXCOORD_0"}}},"name":"Sphere.001","primitives":[{"attributes":{"NORMAL":22,"POSITION":21,"TEXCOORD_0":23},"indices":20,"material":2,"mode":4}]},{"extensions":{"S8S_v3d_mesh_data":{"colorLayers":{},"uvLayers":{"UVMap":"TEXCOORD_0"}}},"name":"Sphere.002","primitives":[{"attributes":{"NORMAL":26,"POSITION":25,"TEXCOORD_0":27},"indices":24,"material":2,"mode":4}]},{"extensions":{"S8S_v3d_mesh_data":{"colorLayers":{},"uvLayers":{"UVMap":"TEXCOORD_0"}}},"name":"Sphere.003","primitives":[{"attributes":{"NORMAL":30,"POSITION":29,"TEXCOORD_0":31},"indices":28,"material":2,"mode":4}]},{"extensions":{"S8S_v3d_mesh_data":{"colorLayers":{"Col":"COLOR_0"},"uvLayers":{"UVMap":"TEXCOORD_0"}}},"name":"Torus.001","primitives":[{"attributes":{"COLOR_0":36,"NORMAL":34,"POSITION":33,"TEXCOORD_0":35},"indices":32,"material":1,"mode":4}]},{"extensions":{"S8S_v3d_mesh_data":{"colorLayers":{},"uvLayers":{"UVMap":"TEXCOORD_0"}}},"name":"Torus.002","primitives":[{"attributes":{"NORMAL":39,"POSITION":38,"TEXCOORD_0":40},"indices":37,"material":0,"mode":4}]}],"nodes":[{"extensions":{"S8S_v3d_node_data":{"frustumCulling":true,"groupNames":["Collection"],"hidden":false,"hidpiCompositing":false,"light":0,"objectColor":[0.0,0.0,0.0],"objectIndex":0,"renderOrder":0}},"name":"Light","rotation":[-0.2841663062572479,0.7269423604011536,0.34203389286994934,0.5232754945755005],"scale":[0.9999999403953552,0.9999997019767761,0.9999999403953552],"translation":[0.758366048336029,0.48197510838508606,-6.475761438196059e-08]},{"extensions":{"S8S_v3d_node_data":{"frustumCulling":true,"groupNames":["Collection"],"hidden":false,"hidpiCompositing":false,"objectColor":[1.0,1.0,1.0],"objectIndex":0,"renderOrder":0,"useShadows":true}},"mesh":5,"name":"Sphere.001","translation":[-0.004840929061174393,0.01973380334675312,0.02902216464281082]},{"children":[1],"name":"v3d_Proxy_Node_0_Sphere.001","translation":[-0.0010173356859013438,0.00532191526144743,-8.425500709563494e-06]},{"extensions":{"S8S_v3d_node_data":{"frustumCulling":true,"groupNames":["Collection"],"hidden":false,"hidpiCompositing":false,"objectColor":[1.0,1.0,1.0],"objectIndex":0,"renderOrder":0,"useShadows":true}},"mesh":7,"name":"Sphere.003","translation":[0.02600467950105667,0.016219263896346092,0.023629985749721527]},{"children":[3],"name":"v3d_Proxy_Node_0_Sphere.003","translation":[-0.0010173356859013438,0.00532191526144743,-8.425500709563494e-06]},{"extensions":{"S8S_v3d_node_data":{"frustumCulling":true,"groupNames":["Sprinkles"],"hidden":false,"hidpiCompositing":false,"objectColor":[1.0,1.0,1.0],"objectIndex":0,"renderOrder":0,"useShadows":true}},"mesh":1,"name":"Sprinkle.002","rotation":[-0.3092781603336334,-0.8246724009513855,-0.46857020258903503,0.06858886033296585],"scale":[0.9999999403953552,1.0,1.0],"translation":[0.3102564215660095,-0.20020052790641785,-0.2729724943637848]},{"children":[9],"extensions":{"S8S_v3d_node_data":{"frustumCulling":true,"groupNames":["Collection"],"hidden":false,"hidpiCompositing":false,"objectColor":[1.0,1.0,1.0],"objectIndex":0,"renderOrder":0,"useShadows":true}},"mesh":8,"name":"Donut","rotation":[0.45315393805503845,-0.36599814891815186,0.21130913496017456,0.784885585308075]},{"camera":0,"extensions":{"S8S_v3d_node_data":{"frustumCulling":true,"groupNames":["Collection"],"hidden":false,"hidpiCompositing":false,"objectColor":[0.0,0.0,0.0],"objectIndex":0,"renderOrder":0}},"name":"Camera","rotation":[8.42937097900176e-08,0.0,0.0,1.0],"scale":[1.0,0.9999999403953552,0.9999999403953552],"translation":[0.0,0.0,0.2845035791397095]},{"children":[11,2,13,4],"extensions":{"S8S_v3d_node_data":{"frustumCulling":true,"groupNames":["Collection"],"hidden":false,"hidpiCompositing":false,"objectColor":[1.0,1.0,1.0],"objectIndex":0,"renderOrder":0,"useShadows":true}},"mesh":9,"name":"Licing","translation":[0.0010173356859013438,-0.00532191526144743,8.425500709563494e-06]},{"children":[8],"name":"v3d_Proxy_Node_0_Licing","translation":[-0.0010173356859013438,0.00532191526144743,-8.425500709563494e-06]},{"extensions":{"S8S_v3d_node_data":{"frustumCulling":true,"groupNames":["Collection"],"hidden":false,"hidpiCompositing":false,"objectColor":[1.0,1.0,1.0],"objectIndex":0,"renderOrder":0,"useShadows":true}},"mesh":4,"name":"Sphere","translation":[0.012496068142354488,0.021062901243567467,-0.02714780531823635]},{"children":[10],"name":"v3d_Proxy_Node_0_Sphere","translation":[-0.0010173356859013438,0.00532191526144743,-8.425500709563494e-06]},{"extensions":{"S8S_v3d_node_data":{"frustumCulling":true,"groupNames":["Collection"],"hidden":false,"hidpiCompositing":false,"objectColor":[1.0,1.0,1.0],"objectIndex":0,"renderOrder":0,"useShadows":true}},"mesh":6,"name":"Sphere.002","translation":[0.0393294095993042,0.015206507407128811,0.004771538078784943]},{"children":[12],"name":"v3d_Proxy_Node_0_Sphere.002","translation":[-0.0010173356859013438,0.00532191526144743,-8.425500709563494e-06]},{"extensions":{"S8S_v3d_node_data":{"frustumCulling":true,"groupNames":["Sprinkles"],"hidden":false,"hidpiCompositing":false,"objectColor":[1.0,1.0,1.0],"objectIndex":0,"renderOrder":0,"useShadows":true}},"mesh":0,"name":"Sprinkle","rotation":[-0.3092781603336334,-0.8246724009513855,-0.46857020258903503,0.06858886033296585],"scale":[0.9999999403953552,1.0,1.0],"translation":[0.2982480227947235,-0.20677310228347778,-0.25135672092437744]},{"extensions":{"S8S_v3d_node_data":{"frustumCulling":true,"groupNames":["Sprinkles"],"hidden":false,"hidpiCompositing":false,"objectColor":[1.0,1.0,1.0],"objectIndex":0,"renderOrder":0,"useShadows":true}},"mesh":2,"name":"Sprinkle.003","rotation":[-0.3092781603336334,-0.8246724009513855,-0.46857020258903503,0.06858886033296585],"scale":[0.9999999403953552,1.0,1.0],"translation":[0.3170832097530365,-0.21023008227348328,-0.2709953486919403]},{"extensions":{"S8S_v3d_node_data":{"frustumCulling":true,"groupNames":["Sprinkles"],"hidden":false,"hidpiCompositing":false,"objectColor":[1.0,1.0,1.0],"objectIndex":0,"renderOrder":0,"useShadows":true}},"mesh":3,"name":"Sprinkle.004","rotation":[-0.3092781603336334,-0.8246724009513855,-0.46857020258903503,0.06858886033296585],"scale":[0.9999999403953552,1.0,1.0],"translation":[0.3235015869140625,-0.21067295968532562,-0.28128740191459656]}],"samplers":[{}],"scene":0,"scenes":[{"extensions":{"S8S_v3d_scene_data":{"aaMethod":"AUTO","iblEnvironmentMode":"PMREM","physicallyCorrectLights":true,"pmremMaxTileSize":512,"shadowMap":{"esmDistanceScale":1.0,"renderReverseSided":false,"renderSingleSided":true,"type":"PCFPOISSON"},"toneMapping":{"type":"filmicBlender"},"worldMaterial":4}},"extras":{"animFrameRate":30,"coordSystem":"Z_UP_RIGHT"},"name":"Scene","nodes":[0,7,6,14,5,15,16]}],"textures":[{"extensions":{"S8S_v3d_texture_data":{"colorSpace":"srgb"}},"name":"Donut Base","sampler":0,"source":0}]}
